<?xml version="1.0" encoding="UTF-8" ?>
<!DOCTYPE svg PUBLIC "-//W3C//DTD SVG 1.1//EN" "http://www.w3.org/Graphics/SVG/1.1/DTD/svg11.dtd">
<svg width="400pt" height="400pt" viewBox="0 0 400 400" version="1.1" xmlns="http://www.w3.org/2000/svg">
<path fill="#fefefe" d=" M 0.00 0.00 L 176.72 0.00 C 176.56 6.02 176.39 12.04 176.63 18.06 C 177.43 26.10 180.29 33.73 183.53 41.07 C 191.17 34.89 198.44 28.26 205.81 21.76 C 204.95 18.20 204.18 14.62 203.60 11.01 C 203.77 7.29 204.86 3.67 205.48 0.00 L 276.23 0.00 C 279.53 10.93 277.35 23.31 270.63 32.55 C 260.16 47.68 237.29 52.53 221.87 42.24 C 219.04 40.67 217.00 37.68 214.06 36.47 C 208.85 39.98 204.67 44.84 199.71 48.70 C 197.31 50.46 195.47 52.86 193.09 54.66 C 195.26 56.21 197.09 58.16 199.04 59.98 C 210.76 70.28 226.43 75.83 242.00 75.53 C 261.67 75.37 281.07 65.57 292.54 49.52 C 300.94 38.53 305.17 24.74 305.55 11.00 C 305.70 7.28 305.14 3.58 304.15 0.00 L 400.00 0.00 L 400.00 400.00 L 398.32 400.00 C 398.16 391.95 399.82 384.04 399.54 376.00 C 399.81 348.78 394.58 321.37 383.31 296.50 C 374.91 278.13 363.59 261.01 349.46 246.54 C 322.98 219.22 286.88 201.16 248.92 197.52 C 219.55 194.01 189.40 199.59 162.47 211.59 C 169.04 218.76 174.95 226.50 181.08 234.05 C 186.15 239.98 191.07 246.03 195.84 252.21 C 196.74 253.00 197.44 254.94 198.95 254.27 C 206.55 251.53 214.45 249.88 222.44 248.77 C 258.46 245.59 294.66 263.20 316.67 291.47 C 323.49 299.98 329.02 309.45 333.66 319.31 C 338.90 330.62 341.70 342.86 343.98 355.06 C 344.81 358.99 344.38 363.04 345.07 366.99 C 346.26 378.03 344.18 389.04 343.17 400.00 L 120.72 400.00 C 117.31 387.41 118.60 374.27 118.54 361.40 C 121.74 327.61 138.19 294.72 164.72 273.27 C 155.47 262.77 146.93 251.65 137.97 240.90 C 135.57 238.00 133.37 234.89 130.49 232.45 C 129.32 232.11 128.38 232.94 127.54 233.61 C 89.30 265.22 65.47 313.46 63.38 362.99 C 63.33 371.09 63.31 379.20 63.41 387.30 C 63.42 391.57 64.67 395.72 64.70 400.00 L 0.00 400.00 L 0.00 0.00 Z" />
<path fill="#000000" d=" M 176.72 0.00 L 205.48 0.00 C 204.86 3.67 203.77 7.29 203.60 11.01 C 204.18 14.62 204.95 18.20 205.81 21.76 C 198.44 28.26 191.17 34.89 183.53 41.07 C 180.29 33.73 177.43 26.10 176.63 18.06 C 176.39 12.04 176.56 6.02 176.72 0.00 Z" />
<path fill="#000000" d=" M 276.23 0.00 L 304.15 0.00 C 305.14 3.58 305.70 7.28 305.55 11.00 C 305.17 24.74 300.94 38.53 292.54 49.52 C 281.07 65.57 261.67 75.37 242.00 75.53 C 226.43 75.83 210.76 70.28 199.04 59.98 C 197.09 58.16 195.26 56.21 193.09 54.66 C 195.47 52.86 197.31 50.46 199.71 48.70 C 204.67 44.84 208.85 39.98 214.06 36.47 C 217.00 37.68 219.04 40.67 221.87 42.24 C 237.29 52.53 260.16 47.68 270.63 32.55 C 277.35 23.31 279.53 10.93 276.23 0.00 Z" />
<path fill="#000000" d=" M 12.25 94.95 C 25.46 68.91 52.66 49.67 82.09 48.21 C 88.70 46.36 95.39 48.39 102.04 48.61 C 114.46 50.40 126.58 54.85 136.88 62.08 C 139.49 63.65 141.69 65.94 144.60 66.98 C 135.16 74.65 126.08 82.86 116.88 90.86 C 115.59 92.14 113.59 91.61 112.21 90.77 C 103.95 86.34 94.30 83.97 84.95 85.08 C 69.09 86.27 54.69 96.35 46.66 109.87 C 43.83 115.03 42.08 120.70 40.60 126.36 C 40.25 130.88 40.43 135.42 40.46 139.95 C 42.79 160.45 59.21 178.50 79.54 182.43 C 85.42 184.11 91.54 183.03 97.53 183.47 C 101.02 186.70 103.60 190.73 106.64 194.35 C 112.09 200.96 117.47 207.62 122.87 214.27 C 115.16 216.47 107.52 219.51 99.42 219.70 C 91.70 221.46 83.74 220.39 76.01 219.48 C 56.05 216.69 37.36 206.25 24.13 191.06 C 12.90 177.82 5.62 161.26 3.57 144.02 C 3.37 137.00 3.29 129.97 3.67 122.96 C 5.24 113.31 7.80 103.71 12.25 94.95 Z" />
<path fill="#000000" d=" M 148.23 93.21 C 151.81 90.21 155.11 86.86 159.00 84.24 L 159.62 84.42 C 166.43 94.03 171.31 105.05 173.78 116.58 C 175.11 120.61 174.03 124.93 175.09 129.01 C 176.48 135.37 174.15 141.66 174.45 148.05 C 171.18 167.01 161.81 185.35 146.98 197.82 C 145.02 197.02 144.09 194.94 142.74 193.44 C 136.46 185.69 130.16 177.95 123.82 170.26 C 122.93 169.35 124.10 168.35 124.65 167.68 C 136.30 156.08 141.42 137.94 136.78 122.09 C 135.71 117.15 133.32 112.66 131.08 108.18 C 136.56 102.92 142.65 98.35 148.23 93.21 Z" />
<path fill="#000000" d=" M 162.47 211.59 C 189.40 199.59 219.55 194.01 248.92 197.52 C 286.88 201.16 322.98 219.22 349.46 246.54 C 363.59 261.01 374.91 278.13 383.31 296.50 C 394.58 321.37 399.81 348.78 399.54 376.00 C 399.82 384.04 398.16 391.95 398.32 400.00 L 343.17 400.00 C 344.18 389.04 346.26 378.03 345.07 366.99 C 344.38 363.04 344.81 358.99 343.98 355.06 C 341.70 342.86 338.90 330.62 333.66 319.31 C 329.02 309.45 323.49 299.98 316.67 291.47 C 294.66 263.20 258.46 245.59 222.44 248.77 C 214.45 249.88 206.55 251.53 198.95 254.27 C 197.44 254.94 196.74 253.00 195.84 252.21 C 191.07 246.03 186.15 239.98 181.08 234.05 C 174.95 226.50 169.04 218.76 162.47 211.59 Z" />
<path fill="#000000" d=" M 127.54 233.61 C 128.38 232.94 129.32 232.11 130.49 232.45 C 133.37 234.89 135.57 238.00 137.97 240.90 C 146.93 251.65 155.47 262.77 164.72 273.27 C 138.19 294.72 121.74 327.61 118.54 361.40 C 118.60 374.27 117.31 387.41 120.72 400.00 L 64.70 400.00 C 64.67 395.72 63.42 391.57 63.41 387.30 C 63.31 379.20 63.33 371.09 63.38 362.99 C 65.47 313.46 89.30 265.22 127.54 233.61 Z" />
</svg>
