<?xml version="1.0" encoding="UTF-8" ?>
<!DOCTYPE svg PUBLIC "-//W3C//DTD SVG 1.1//EN" "http://www.w3.org/Graphics/SVG/1.1/DTD/svg11.dtd">
<svg width="180pt" height="180pt" viewBox="0 0 180 180" version="1.1" xmlns="http://www.w3.org/2000/svg">
<path fill="#fffffe" d=" M 0.00 0.00 L 180.00 0.00 L 180.00 180.00 L 0.00 180.00 L 0.00 0.00 Z" />
<path fill="#000000" d=" M 52.21 43.40 C 59.87 39.67 69.41 40.85 76.13 46.03 C 73.99 47.94 71.98 50.02 69.59 51.62 C 67.01 52.20 64.60 50.31 61.99 50.53 C 53.46 50.21 45.87 60.20 49.75 68.19 C 51.70 73.87 57.68 77.20 63.53 76.73 C 66.42 78.77 68.17 82.11 70.61 84.67 C 65.05 86.64 58.89 86.92 53.42 84.49 C 45.34 81.11 39.42 72.83 39.44 63.99 C 39.26 55.41 44.47 47.08 52.21 43.40 Z" />
<path fill="#000000" d=" M 74.01 55.97 C 76.02 54.21 78.19 52.65 80.20 50.89 C 87.03 59.52 85.26 73.05 77.06 80.18 C 75.00 77.88 73.17 75.40 71.18 73.05 C 74.54 69.29 75.81 63.95 74.06 59.15 C 73.91 58.16 72.78 56.71 74.01 55.97 Z" />
<path fill="#000000" d=" M 81.68 83.97 C 93.68 78.56 108.22 79.06 119.77 85.40 C 129.81 90.73 137.24 100.26 140.75 111.00 C 143.72 118.56 142.49 126.83 142.56 134.75 C 140.34 148.85 131.12 161.69 118.31 168.07 C 109.91 172.12 100.14 173.66 90.98 171.62 C 79.18 169.46 68.54 161.95 62.34 151.71 C 54.73 139.90 53.42 124.69 57.55 111.41 C 60.39 102.79 65.73 95.11 72.70 89.31 C 75.49 92.88 78.52 96.28 81.11 100.01 C 75.36 105.71 70.98 112.95 69.65 121.02 C 69.39 126.02 69.01 131.19 70.64 136.02 C 73.65 146.94 82.76 156.26 94.02 158.45 C 99.25 158.93 104.78 159.11 109.69 156.92 C 119.24 153.08 126.25 144.14 128.47 134.18 C 130.65 126.06 128.97 117.27 125.13 109.92 C 120.10 100.43 109.95 93.25 98.98 93.52 C 96.07 93.42 93.28 94.37 90.43 94.80 C 87.37 91.30 84.43 87.71 81.68 83.97 Z" />
</svg>
