<?xml version="1.0" standalone="no"?>
<!DOCTYPE svg PUBLIC "-//W3C//DTD SVG 20010904//EN"
 "http://www.w3.org/TR/2001/REC-SVG-20010904/DTD/svg10.dtd">
<svg version="1.0" xmlns="http://www.w3.org/2000/svg"
 width="400.000000pt" height="400.000000pt" viewBox="0 0 400.000000 400.000000"
 preserveAspectRatio="xMidYMid meet">
<metadata>
Created by potrace 1.12, written by Peter Selinger 2001-2015
</metadata>
<g transform="translate(0.000000,400.000000) scale(0.100000,-0.100000)"
fill="#000000" stroke="none">
<path d="M1766 3969 c-9 -47 -7 -118 5 -185 12 -71 58 -196 69 -192 5 2 56 45
114 96 l106 93 -7 42 c-9 50 -9 100 0 145 l7 32 -144 0 -143 0 -7 -31z"/>
<path d="M2765 3892 c0 -98 -3 -112 -28 -160 -65 -124 -175 -194 -314 -200
-98 -5 -152 12 -231 70 l-52 39 -106 -92 -105 -92 23 -25 c74 -80 229 -159
352 -181 213 -38 444 46 594 216 115 130 185 355 156 502 l-6 31 -142 0 -141
0 0 -108z"/>
<path d="M775 3519 c-375 -54 -678 -352 -736 -723 -16 -97 -5 -283 20 -371 28
-97 101 -238 161 -312 106 -132 265 -238 435 -289 79 -24 107 -27 230 -28 82
0 159 5 185 12 95 26 150 47 150 56 0 5 -17 30 -38 55 -21 25 -76 92 -121 149
l-83 102 -72 0 c-142 0 -274 57 -370 160 -95 103 -132 212 -124 365 7 123 50
220 140 308 90 88 225 147 339 147 58 0 160 -25 211 -51 35 -18 45 -19 62 -9
30 19 276 232 276 239 0 11 -129 92 -187 117 -87 39 -130 52 -227 69 -96 16
-158 17 -251 4z"/>
<path d="M1453 3047 c-72 -61 -134 -118 -137 -125 -3 -7 3 -31 14 -53 80 -157
58 -362 -55 -510 l-43 -57 104 -128 c145 -178 127 -165 175 -119 108 105 189
257 230 435 18 79 16 280 -5 360 -33 128 -118 310 -145 310 -3 0 -65 -51 -138
-113z"/>
<path d="M2195 2034 c-16 -2 -68 -9 -115 -15 -106 -14 -180 -31 -295 -71 -109
-38 -155 -57 -155 -63 0 -5 114 -147 273 -340 43 -52 80 -88 88 -86 140 39
171 44 314 45 169 1 248 -13 389 -68 141 -56 248 -128 372 -251 141 -141 216
-253 287 -431 88 -222 114 -450 81 -706 l-7 -48 277 0 c254 0 277 1 284 18 3
9 7 114 6 232 0 163 -4 239 -18 315 -60 336 -181 607 -384 861 -250 313 -615
525 -1010 589 -96 16 -329 27 -387 19z"/>
<path d="M1223 1621 c-300 -259 -516 -667 -578 -1092 -15 -108 -21 -395 -9
-483 l7 -46 284 0 283 0 -5 25 c-3 14 -8 37 -11 52 -3 14 -5 97 -5 182 0 365
117 659 365 918 64 67 86 97 79 106 -88 113 -326 397 -333 397 -5 0 -39 -26
-77 -59z"/>
</g>
</svg>
